<?xml version="1.0" standalone="no"?>
<!DOCTYPE svg PUBLIC "-//W3C//DTD SVG 20010904//EN"
 "http://www.w3.org/TR/2001/REC-SVG-20010904/DTD/svg10.dtd">
<svg version="1.0" xmlns="http://www.w3.org/2000/svg"
 width="200.000000pt" height="200.000000pt" viewBox="0 0 200.000000 200.000000"
 preserveAspectRatio="xMidYMid meet">

<g transform="translate(0.000000,200.000000) scale(0.100000,-0.100000)"
fill="#000000" stroke="none">
<path d="M145 1350 c-161 -20 -168 -29 -38 -49 118 -18 335 -8 382 19 37 20
-231 44 -344 30z"/>
<path d="M732 1350 c-171 -18 -181 -33 -36 -51 97 -12 274 -6 339 12 36 10 38
12 18 20 -22 8 -213 30 -237 28 -6 -1 -44 -5 -84 -9z"/>
<path d="M474 1227 c-3 -8 -4 -41 -2 -73 l3 -59 70 0 70 0 0 70 0 70 -68 3
c-51 2 -69 -1 -73 -11z"/>
<path d="M1805 1029 c-73 -21 -115 -112 -82 -176 15 -29 31 -38 102 -59 17 -5
30 -16 30 -24 0 -21 -57 -24 -95 -5 l-30 16 -20 -46 c-11 -26 -20 -48 -20 -50
0 -6 76 -32 112 -39 82 -15 168 33 190 105 9 31 8 43 -8 75 -16 33 -28 42 -79
59 -69 23 -83 51 -25 49 19 -1 44 -5 55 -8 17 -6 23 0 37 38 l17 46 -51 15
c-57 17 -88 18 -133 4z"/>
<path d="M370 834 l0 -196 123 4 c135 4 170 16 211 71 33 44 35 176 4 237 -35
68 -67 80 -215 80 l-123 0 0 -196z m239 97 c31 -19 -22 -182 -61 -189 -35 -7
-98 140 -77 179 8 15 21 19 67 19 31 0 63 -4 71 -9z"/>
<path d="M772 892 c4 -155 16 -190 77 -226 47 -27 145 -27 191 0 67 39 75 59
78 220 l4 144 -66 0 -66 0 0 -116 c0 -127 -8 -154 -46 -154 -35 0 -44 32 -44
161 l0 109 -66 0 -66 0 4 -138z"/>
<path d="M1225 1008 c-11 -52 -55 -320 -55 -338 0 -18 7 -20 59 -20 69 0 66
-5 77 134 4 48 10 82 14 75 3 -8 19 -58 35 -111 l28 -98 37 0 37 0 28 98 c16
53 32 103 35 111 4 8 11 -26 14 -75 12 -140 8 -134 77 -134 49 0 59 3 59 18 0
9 -12 95 -27 190 l-27 172 -67 0 -68 0 -20 -67 c-11 -38 -24 -86 -29 -108 -10
-44 -12 -42 -36 57 -30 122 -26 118 -101 118 -59 0 -65 -2 -70 -22z"/>
</g>
</svg>
